<?xml version="1.0" encoding="utf-8"?>
<!-- Generator: Adobe Illustrator 22.0.0, SVG Export Plug-In . SVG Version: 6.00 Build 0)  -->
<svg version="1.1" id="Layer_1" xmlns="http://www.w3.org/2000/svg" xmlns:xlink="http://www.w3.org/1999/xlink" x="0px" y="0px"
	 viewBox="0 0 200 80" style="enable-background:new 0 0 200 80;" xml:space="preserve">
<style type="text/css">
	.st0{fill-rule:evenodd;clip-rule:evenodd;fill:url(#SVGID_1_);}
	.st1{fill-rule:evenodd;clip-rule:evenodd;fill:url(#SVGID_2_);}
	.st2{fill-rule:evenodd;clip-rule:evenodd;fill:#004522;}
</style>
<g>
	<g>
		<linearGradient id="SVGID_1_" gradientUnits="userSpaceOnUse" x1="167.9198" y1="34.9352" x2="134.7723" y2="11.7251">
			<stop  offset="0" style="stop-color:#006840"/>
			<stop  offset="0.4" style="stop-color:#007A48"/>
			<stop  offset="1" style="stop-color:#86C440"/>
		</linearGradient>
		<path class="st0" d="M146.4,9.5c-2.9,0.6-4,1.9-3.9,3.8c0.1,2.7,3.1,7.8,4.5,10.1c2.5,4,5.4,7.6,8.6,10.9c2.6,2.6,4.3,3.1,7.1-0.7
			c2.4-3.1,4.6-6.3,6.5-10.2c0.8-1.7,1.6-3.6,2.3-5.7c0.7-2.5,0.5-4.6-1.9-6.2c2.3,1.1,3.3,3.2,3.5,5.5c0.1,2.2-0.5,4.6-1,6.4
			c-1.3,4.4-2.9,8.9-4.9,12.9c-1.5,3-3.5,6.7-5.5,9.4c-4.3,6-8.5,4-13.4,0c-3.1-2.6-6.1-5.8-8.6-9.3c-2.6-3.6-5.4-8.9-7.1-12.9
			c-2.3-5.6-0.5-8.4,2.3-10.2C137.9,11.2,142.6,10,146.4,9.5z"/>
		<linearGradient id="SVGID_2_" gradientUnits="userSpaceOnUse" x1="147.1289" y1="9.3066" x2="166.7441" y2="23.0413">
			<stop  offset="0" style="stop-color:#006840"/>
			<stop  offset="0.3" style="stop-color:#007A48"/>
			<stop  offset="1" style="stop-color:#86C440"/>
		</linearGradient>
		<path class="st1" d="M146.3,22.2c4.5-0.7,16.3-1.4,20.4,0.7c1.4,0.7,1.4,1.7,1.3,2.8c0.4-0.7,0.8-1.5,1.2-2.3
			c0.8-1.7,1.6-3.6,2.3-5.7c0.7-2.5,0.5-4.6-1.9-6.2l0,0c-0.9-0.5-1.9-0.8-2.8-1.1c-2.7-0.8-5.7-1.1-8.8-1.3C156.6,9,155.3,9,154,9
			c-2.4,0-5,0.2-7.6,0.5c-2.9,0.6-4,1.9-3.9,3.8C142.6,15.6,144.8,19.6,146.3,22.2z"/>
	</g>
	<path class="st2" d="M134.5,71.2c2.4-0.3,4.4-1.5,5-5.1c0.4-2.3,0.4-6-0.3-8.1c-0.3-1-0.7-1.8-1.4-2.4c-1.1-0.9-2.3-1.1-3.4-1.1
		c-1.8-0.1-2.8,0.2-4.1,1.3c-0.3,0.2-0.5,0.3-0.5-0.1l0-7.6l-4.2,0.1l0,21.8C127.4,71.2,132.4,71.4,134.5,71.2L134.5,71.2z
		 M21.5,70.7c0.9,0,0.7,0.1,1.3-0.7c3.7-5,7.1-15.7,7.1-21.7c-1.7-0.1-3.4,0.2-5.2,0.6c-1.7,9.8-3.1,12.4-5.8,17.4l0,0l0,0
		c-2.6-5-4.1-7.6-5.8-17.4c-1.7-0.4-3.5-0.7-5.2-0.6c0,6,3.4,16.7,7.1,21.7c0.5,0.7,0.4,0.7,1.3,0.7H21.5L21.5,70.7z M142.6,55.3
		l0.4,3.8c1.7-0.2,3-0.6,4.8-0.7c2.6-0.1,4.3-0.2,4.2,1.8c-2,0-4,0-6,0c-2.5,0-4.5,1.2-4.3,6.2c0.3,6.1,7.5,5.6,10.8,3.2V71h3.8
		c-0.1-6.2,0.3-12.7-0.8-14.4C153.5,53.2,146.5,54.4,142.6,55.3L142.6,55.3z M52.6,70.2c-0.1-1.2-0.3-2.5-0.4-3.7
		c-1.7,0.3-4.7,0.8-6.4,0.7c-2-0.1-2.8-1-2.8-3.9c0.6,0.7,1.5,1.2,2.7,1.2c2.6,0,5.1,0.1,7.7,0c0.1-4.8,0.5-8.9-4.2-10
		c-1.9-0.4-4.5-0.4-6.3,0.1c-2,0.6-3,1.6-3.6,3.6c-1.1,3.7-0.8,9.3,1.6,11.4C43.6,72.1,49.1,71.3,52.6,70.2L52.6,70.2z M44.9,58.3
		H47c1.1,0,1.9,0.9,1.9,1.9V61H43v-0.8C43,59.1,43.9,58.3,44.9,58.3L44.9,58.3z M179.7,70.9l0.1-7c0-0.4,0.4,0.1,0.5,0.3
		c1.4,2.3,2.7,4.1,4.7,6.2c0.6,0.6,0.7,0.5,1.7,0.5h4.4c-3.2-2.7-5-4.8-6.7-8c-0.3-0.7-0.3-0.7,0.2-1.4c0.6-0.7,1.4-1.7,2.3-2.7
		l3.8-4.4c0,0,0-0.1,0.1-0.1h-4c-0.7,0-0.7-0.1-1.2,0.4c-1.5,1.6-3.3,3.6-4.7,5.1c-0.2,0.2-0.4,0.3-0.6,0.5
		c-0.6,0.4-0.5,0.3-0.5-0.3l0-11.9l-4.3,0l-0.1,22.8H179.7L179.7,70.9z M80.7,70.4l-0.4-3.7c-1.9,0.2-4,0.7-6,0.5
		c-2-0.2-2.3-1.3-2.3-3c0-1,0-2.1,0-3.1c0.1-1.4,0.5-2.2,2.3-2.4c2-0.2,4.1,0.3,6,0.5l0.4-3.7c-7.3-1.7-11.9-0.9-12.9,4.8
		c-0.2,1.2-0.1,5.1,0.2,6.2C69.2,71.3,73.7,72,80.7,70.4L80.7,70.4z M57.6,54.5c-0.9,0-1.8,0-2.7,0c0,1.3,0,2.6,0,3.9
		c0.9,0,1.8,0,2.7,0c0,1.3,0,2.7,0,4.1c0,1.4,0,2.7,0,3.9c0,1.7,0.3,3.1,1.3,3.9c0.4,0.3,1,0.5,1.7,0.6c1.7,0.2,3.7,0.1,5.2-0.4
		c0-1.1-0.1-2.3-0.1-3.4c-1.6,0.2-3.7,0.5-3.7-0.3c0-2.9,0-5.4,0-8.3c1.3,0,2.6,0,3.9,0c0-1.3,0-2.6,0-3.9c-1.3,0-2.6,0-3.9,0
		c0-1.3,0-2.6,0-3.9c-1.4,0-2.9,0-4.3,0C57.6,51.9,57.6,53.2,57.6,54.5L57.6,54.5z M31.5,70.9l4.2,0.1l0.2-16.5l-4.3,0L31.5,70.9
		L31.5,70.9z M88.3,54.3H92c2.9,0,5.3,2.4,5.3,5.3v6.3c0,2.9-2.4,5.3-5.3,5.3h-3.7c-2.9,0-5.3-2.4-5.3-5.3v-6.3
		C83,56.7,85.4,54.3,88.3,54.3L88.3,54.3z M89.1,58.3c-1.1,0-1.9,0.9-1.9,1.9v5.1c0,1.1,0.9,1.9,1.9,1.9h2.1c1.1,0,1.9-0.9,1.9-1.9
		v-5.1c0-1.1-0.9-1.9-1.9-1.9H89.1L89.1,58.3z M104.3,70.9c0-4.2,0.1-8.4,0.1-12.6c1,0,2.1,0,3.1,0c0.8,0,1.7,0.5,1.7,1.4v0.6
		l0,10.6h4.2l0.1-12.6c1.1,0,2.3,0,3.4,0c1,0,1.7,0.6,1.7,1.5l0,11.1h4.2L123,59c0-2.5-1.4-4.6-4.2-4.6c-0.9,0-1.8,0-2.7,0
		c-1.4,0-2.1,0.3-2.9,1.1c-0.6,0.7-0.3,0.7-0.9,0c-0.8-0.9-1.9-1.2-3.1-1.2c-0.6,0-1.3,0-1.9,0c-1.2,0-1.9,0.4-2.8,1.3
		c-0.7,0.7-0.6,0.9-0.6-0.2c0-0.3,0-0.7,0-1c0,0,0,0,0,0l0,0c-1.2,0-2.4,0-3.6,0c0,5.5,0,10.9,0,16.4H104.3L104.3,70.9z M163.3,70.9
		c0-4.2,0.1-8.4,0.1-12.6c1.1,0,2.1,0,3.2,0c0.9,0,1.7,0.6,1.7,1.5c0,3.7,0,7.4,0,11.1c1.4,0,2.8,0,4.3,0c0-3.7,0.1-7.3,0.1-11
		c0-2.9-1.1-5.5-4.6-5.5c-0.7,0-1.3,0-2,0c-1.1,0-1.9,0.4-2.7,1.2c-0.7,0.7-0.7,1.1-0.7,0v-1.1l-3.6,0c0,5.5,0,10.9,0,16.4
		C160.5,70.9,161.9,70.9,163.3,70.9L163.3,70.9z M147.5,63.8c1.5,0,3.1,0,4.6,0c0,0.8,0,1.6,0,2.4c0,1-2.9,1.1-4.8,1
		c-1.4,0-1.2,0-1.3-1.2c0-0.5,0-0.9,0-1.4C146,63.8,146.2,63.8,147.5,63.8L147.5,63.8z M135.4,60.9v2.3v2.3c0,1.1-0.9,1.9-1.9,1.9
		c-0.7,0-1.4,0-2.2,0c-1.5,0-1.5,0-1.5-2.1v-2.1v-2.8c0-2.1,0-2.1,1.5-2.1c0.7,0,1.4,0,2.2,0c1.1,0,1.9,0.9,1.9,1.9V60.9z"/>
</g>
</svg>
