<svg width="322" height="53" viewBox="0 0 322 53" fill="none" xmlns="http://www.w3.org/2000/svg">
<path d="M142.679 0.72491C141.954 1.44868 141.929 1.57347 142.029 3.07093C142.179 5.44192 142.879 6.36535 145.704 7.8129C147.754 8.86112 148.604 9.03582 147.579 8.21222C147.379 8.01256 146.904 7.38862 146.554 6.78963C145.979 5.79132 145.929 5.5667 146.104 3.74479C146.304 1.52356 146.104 0.924572 144.979 0.350545C143.929 -0.198525 143.529 -0.123651 142.679 0.72491Z" fill="#03AFBD"/>
<path d="M176.804 0.450372C175.779 1.07431 175.654 1.57347 175.854 3.91949C176.054 6.09081 175.829 6.83954 174.629 7.93768C173.454 9.03582 173.954 9.01086 176.254 7.81289C179.079 6.36535 179.779 5.44191 179.929 3.07093C180.029 1.57347 180.004 1.44868 179.279 0.724907C178.404 -0.148612 177.904 -0.198528 176.804 0.450372Z" fill="#03AFBD"/>
<path d="M149.229 5.76636C148.679 6.36534 148.529 8.18726 148.954 9.26044C149.304 10.1839 150.504 11.2071 152.279 12.1056C153.979 12.9542 154.429 12.9542 153.454 12.0557C152.429 11.1323 152.154 10.2587 152.329 8.337C152.479 6.66484 152.454 6.51509 151.879 5.89115C151.104 5.04259 149.954 4.99267 149.229 5.76636Z" fill="#03AFBD"/>
<path d="M170.529 5.392C169.829 5.66653 169.504 6.83954 169.654 8.73633C169.779 10.5832 169.779 10.5832 168.879 11.6314C168.379 12.1805 167.979 12.7296 167.979 12.8044C167.979 13.1788 171.429 11.1572 172.229 10.3586C172.979 9.55993 173.104 9.26044 173.179 7.88777C173.254 6.56501 173.204 6.26552 172.729 5.76636C172.229 5.24225 171.304 5.06755 170.529 5.392Z" fill="#03AFBD"/>
<path d="M124.854 6.0409C123.229 6.81459 121.429 8.76129 120.879 10.3336C120.629 11.0324 120.354 11.8061 120.229 12.1056C120.054 12.5299 119.654 12.6547 117.704 12.9043C112.404 13.6031 103.554 15.5997 95.8538 17.8209C93.7288 18.4449 91.8788 18.944 91.7538 18.944C91.3788 18.944 92.1538 16.0489 92.9788 14.4516C93.9788 12.48 95.2788 11.0824 96.8288 10.2587C97.8788 9.70968 98.4288 9.58489 99.9788 9.60985C101.579 9.60985 102.104 9.70968 103.479 10.3835C104.379 10.8078 105.479 11.4068 105.929 11.7063C107.129 12.5299 106.904 11.906 105.554 10.708C103.454 8.86112 102.179 8.33701 99.7288 8.33701C97.8288 8.33701 97.4038 8.43684 95.9538 9.13565C92.6038 10.7829 89.9788 14.5764 89.7788 17.9956C89.7288 18.944 89.6538 19.6928 89.6288 19.6928C89.6038 19.6928 87.7288 20.3167 85.4538 21.0904C81.6788 22.3632 77.7288 23.4115 76.6788 23.4364C76.3038 23.4364 76.2288 23.1868 76.2288 21.8391C76.2288 20.0422 75.6788 18.969 74.2538 18.0206C73.1288 17.2469 70.9538 17.2219 69.7788 17.9457C68.4538 18.7444 67.7538 21.1902 68.5538 22.1885C69.6288 23.5612 71.8038 23.8857 72.8538 22.8125C73.6788 22.0138 73.6788 20.8658 72.8538 20.0671C72.2288 19.4432 70.7288 19.1936 70.7288 19.7177C70.7288 19.8425 70.8538 19.8924 71.0038 19.8175C71.3538 19.5929 72.3788 19.8675 72.8288 20.3417C73.8288 21.315 72.8038 23.1868 71.2788 23.1868C70.1038 23.1868 68.7788 22.3882 68.5788 21.5396C68.3538 20.6412 68.8538 19.1686 69.6038 18.4449C70.0538 18.0206 70.6038 17.8209 71.5788 17.7461C74.0288 17.5464 75.7038 18.8692 75.9288 21.2152C76.1288 23.4614 76.0538 23.5612 73.4288 24.0354C72.1538 24.26 69.9788 24.6094 68.6038 24.8091L66.1288 25.1585L65.2288 24.5096C64.7538 24.1352 63.4538 23.112 62.3538 22.2384C58.8788 19.4432 55.6788 18.2951 53.2538 18.944C51.7788 19.3434 50.1788 20.9656 49.7538 22.513C49.4538 23.5362 49.4538 25.5578 49.7538 26.6809C49.8288 27.0054 49.4288 27.0553 47.2288 27.0553C45.7788 27.0553 43.0288 26.9804 41.1038 26.9055C39.1288 26.8057 38.3038 26.8307 39.2288 26.9305C40.1288 27.0303 41.6538 27.1302 42.6038 27.1551C45.9288 27.23 45.0288 27.6044 40.8038 27.9038C31.4038 28.5777 24.5788 28.9022 19.8538 28.9271C16.1788 28.9271 14.9538 29.002 15.1538 29.2016C15.5788 29.6259 37.4788 28.6775 42.1788 28.0536C42.7538 27.9538 43.2288 27.9538 43.2288 28.0037C43.2288 28.0785 42.6288 28.5527 41.9038 29.0769C40.7538 29.9254 40.4538 30.0252 39.3538 29.9753C38.4288 29.9254 37.7038 30.0752 36.7288 30.5244C34.8288 31.373 31.4288 32.3214 29.4788 32.521C28.0038 32.6708 25.8288 32.4711 24.3038 32.0219C23.4788 31.7972 23.5288 32.6708 24.3788 33.5193C25.2538 34.3679 26.5288 34.7423 28.4038 34.6175C29.2538 34.5925 29.8788 34.6175 29.8288 34.6923C29.7788 34.7922 28.6038 35.3412 27.2288 35.9153C25.0038 36.8637 24.5538 37.1631 23.2288 38.6107C22.4038 39.5092 21.7288 40.3328 21.7288 40.4326C21.7288 40.7571 25.5538 40.7071 26.3788 40.4077C26.7538 40.2579 27.8038 39.584 28.7038 38.9351C29.6038 38.2613 30.6788 37.5126 31.1038 37.263C31.8038 36.8137 31.8038 36.8387 30.8038 38.1615C29.1788 40.3078 28.8788 41.5058 29.6038 42.9034C30.0038 43.7021 30.4788 43.9017 30.4788 43.3027C30.4788 42.6039 31.4288 40.7571 32.6038 39.2097C33.2538 38.3611 35.2288 36.3895 37.0038 34.8421C39.5788 32.5959 40.2538 31.8971 40.3788 31.2232C40.5038 30.5993 40.9038 30.15 42.2538 29.1767L43.9788 27.9288L46.9788 27.6293L49.9538 27.3298L50.9038 28.3531C52.9288 30.4994 56.4788 31.5976 62.3038 31.8472L66.0038 31.9969L63.1038 32.8455C59.3788 33.8937 57.1288 34.8421 55.2288 36.1399C54.2788 36.7888 53.4538 37.1631 52.9788 37.1631C51.3288 37.1631 49.9788 38.3861 49.9788 39.8336C49.9788 40.4077 49.8538 40.6572 49.6038 40.6572C49.3538 40.6572 49.2288 40.4077 49.2288 39.9584C49.2288 39.1098 48.3038 38.1615 47.5038 38.1615C47.1788 38.1615 46.2288 38.6107 45.3788 39.1847C43.8788 40.183 43.8288 40.208 42.1788 40.0832C41.2038 40.0083 40.4788 40.0333 40.4788 40.1581C40.4788 40.3078 40.8038 40.7571 41.2038 41.2063C41.9038 41.98 42.0538 42.0299 44.0288 42.1547C46.0538 42.2795 46.1038 42.3044 46.1038 42.9034C46.1038 43.4774 45.9788 43.5523 44.8538 43.6771C43.2288 43.8768 42.9538 44.0016 42.3288 44.9749C41.9288 45.5739 41.7538 46.3226 41.6538 47.895C41.5788 49.068 41.4288 50.2909 41.3288 50.6153C41.1788 51.1395 41.2038 51.1644 41.6788 50.9148C41.9788 50.7651 43.1538 50.5405 44.2788 50.4157C45.4288 50.3159 46.6288 50.0912 46.9288 49.9165C47.6038 49.5671 48.1288 48.5688 48.3538 47.271C48.6288 45.6238 48.7538 45.3742 49.1788 45.4491C49.5288 45.524 49.6038 45.8734 49.6038 47.4707V49.4174L50.6538 50.4157C51.2288 50.9398 51.8288 51.389 51.9788 51.389C52.1288 51.389 52.2288 50.5405 52.2288 49.1928C52.2288 47.2461 52.3038 46.9216 52.7538 46.4973C53.5788 45.7736 54.0288 44.5506 53.7538 43.8019C53.4538 43.0532 52.5538 42.4043 51.8038 42.4043C50.9038 42.4043 51.1288 42.0049 52.2288 41.6805C53.5788 41.2812 54.2288 40.2329 54.2288 38.4859C54.2288 37.3129 54.3038 37.1382 55.0288 36.5891C57.6788 34.5925 61.7538 33.2697 73.0038 30.6991C79.9788 29.1018 82.2288 28.4529 87.1288 26.656C89.3538 25.8573 91.2788 25.1835 91.4038 25.1835C91.5288 25.1835 92.0538 25.7325 92.6038 26.4313C93.1538 27.1052 93.6538 27.6792 93.7288 27.6792C93.8038 27.7042 94.3288 28.1285 94.9038 28.6276L95.9788 29.5511L93.7288 31.8222C91.8038 33.7939 91.3538 34.1183 90.4788 34.2431C89.7038 34.3429 89.1288 34.6923 87.9538 35.7655C84.4788 38.9851 80.0788 41.1564 77.0538 41.1564C76.2788 41.1564 76.2288 41.2063 76.4788 41.6555C77.1788 42.9783 79.4788 43.2528 81.8288 42.2795L83.3288 41.6805L80.9288 43.9766C78.7538 46.073 78.5038 46.4225 77.8788 48.1196C77.5038 49.1179 77.2538 50.0164 77.3288 50.0663C77.5038 50.241 79.1538 49.667 80.5038 48.9931C81.7788 48.3692 82.2288 47.87 84.1038 45.1995C85.3538 43.4026 86.0538 42.8036 85.3788 44.0764C84.8788 45.0997 84.4538 47.271 84.6288 48.1196C84.7038 48.5189 85.1538 49.2177 85.6288 49.667L86.4788 50.4906V48.9931C86.4788 48.1945 86.6038 47.0214 86.7538 46.3975C87.0288 45.1995 88.7788 41.5058 90.6038 38.2862C91.3788 36.8637 91.7288 36.0151 91.7288 35.3163C91.7288 34.2681 92.4538 33.3197 95.1538 30.8489L96.4538 29.6509L97.6538 30.2499C101.454 32.1716 107.379 32.3713 113.054 30.8239C115.204 30.2249 119.629 28.5527 120.179 28.1285C120.679 27.7042 120.529 28.0536 119.579 29.4512C117.929 31.922 115.554 37.263 115.804 38.0117C115.854 38.1615 116.154 37.4876 116.479 36.5392C117.354 33.8438 118.354 31.7972 119.854 29.5261C121.329 27.3298 122.454 26.2566 124.804 24.859L126.229 23.9855L127.779 24.6094C130.179 25.5828 133.154 26.0071 136.479 25.8573C138.929 25.7575 139.804 25.5828 142.479 24.7342C145.729 23.7109 148.679 23.0371 150.929 22.8624C151.629 22.8125 152.229 22.7875 152.229 22.8125C152.229 22.8374 151.529 23.1369 150.679 23.4364C147.929 24.4347 145.429 26.3565 144.479 28.1784C143.729 29.6259 140.879 32.0219 139.279 32.521C138.879 32.6708 138.529 32.546 137.979 32.0967C136.679 30.9986 135.329 31.0236 133.679 32.2215C133.029 32.6957 132.854 32.2964 133.454 31.6974C134.704 30.4495 133.629 28.428 131.754 28.428C130.279 28.428 129.479 28.0286 128.179 26.631L127.004 25.3582L126.854 26.2816C126.579 27.6543 126.879 28.3531 128.229 29.6509C129.529 30.8988 129.779 31.4978 129.079 31.7723C128.629 31.947 128.229 31.7473 127.779 31.1483C127.629 30.8988 127.079 30.5743 126.629 30.4246C125.354 30.0003 123.954 30.5244 122.654 31.8472C122.079 32.4461 121.229 33.1699 120.779 33.4694L119.929 33.9935L120.654 34.318C121.054 34.5176 121.979 35.1915 122.729 35.7905C124.829 37.5375 125.779 37.5874 128.004 36.0401C130.104 34.5925 130.429 35.491 128.479 37.3628C127.254 38.5608 127.229 38.5857 127.229 40.1082C127.229 40.9567 127.329 41.6555 127.429 41.6555C127.554 41.6555 127.954 41.3061 128.379 40.8818C129.479 39.7088 130.979 38.6606 131.354 38.8104C131.904 39.035 133.429 38.436 133.854 37.837C134.379 37.0883 134.329 36.09 133.729 35.3412C133.154 34.6175 133.504 34.1433 134.179 34.7423C134.954 35.4161 135.679 35.466 136.829 34.9669C137.429 34.6923 138.129 34.1682 138.354 33.8188C138.604 33.4694 139.429 32.8205 140.204 32.4212C140.979 31.9969 142.079 31.2232 142.629 30.6741L143.679 29.7008L143.654 31.4978C143.604 35.8653 146.179 38.9102 149.879 38.9102C151.029 38.9102 153.129 37.9868 153.904 37.1382C156.304 34.5176 155.179 29.9254 152.029 29.5011C150.029 29.2266 147.729 30.9736 147.729 32.7456C147.729 34.1183 149.054 35.6657 150.229 35.6657C150.829 35.6657 152.254 34.8421 152.529 34.318C152.804 33.7939 152.804 33.7939 152.204 34.3429C150.829 35.5908 149.529 35.5659 148.504 34.2681C147.354 32.7956 148.204 30.8489 150.379 30.0252C152.379 29.2765 154.104 30.2 154.754 32.4212C155.479 34.8171 153.929 37.5375 151.404 38.2862C150.704 38.4859 149.904 38.6606 149.629 38.6606C147.779 38.6606 145.654 37.2131 144.679 35.3163C143.954 33.8937 143.779 30.8988 144.329 29.2516C145.104 26.9305 147.229 25.0587 150.479 23.8357C152.704 23.0121 154.154 22.8374 155.854 23.1868C157.154 23.4614 157.304 23.5612 157.654 24.3848C158.054 25.3831 160.704 29.1767 160.979 29.1767C161.254 29.1767 163.904 25.3831 164.304 24.3598C164.529 23.8607 164.754 23.4364 164.804 23.4364C164.854 23.4364 165.504 23.3366 166.229 23.1868C170.079 22.4631 175.729 25.1585 177.304 28.4779C179.479 33.095 176.704 38.6606 172.204 38.6606C170.379 38.6606 168.029 37.1382 167.329 35.491C166.554 33.694 167.254 31.0984 168.779 30.175C169.804 29.5511 170.554 29.5511 171.879 30.15C173.854 31.0485 174.554 32.8704 173.454 34.2681C172.429 35.5659 171.104 35.5908 169.804 34.3679C169.479 34.0684 169.229 33.9436 169.229 34.1183C169.229 34.4677 170.479 35.3412 171.279 35.5409C172.654 35.8903 174.229 34.3679 174.229 32.7456C174.229 30.9736 171.929 29.2266 169.929 29.5011C167.379 29.8505 165.904 33.3197 167.204 35.8653C167.829 37.0633 168.579 37.7621 169.979 38.3861C172.179 39.3844 174.479 38.9351 176.254 37.1631C177.704 35.7156 178.329 33.9935 178.304 31.4978L178.279 29.7008L179.329 30.6741C179.879 31.2232 180.979 31.9969 181.754 32.4212C182.529 32.8205 183.354 33.4694 183.604 33.8188C183.829 34.1682 184.529 34.6923 185.129 34.9669C186.279 35.466 187.004 35.4161 187.779 34.7423C188.454 34.1433 188.804 34.6175 188.229 35.3412C187.629 36.09 187.579 37.0883 188.104 37.837C188.529 38.436 190.054 39.035 190.604 38.8104C190.979 38.6606 192.479 39.7088 193.579 40.8818C194.004 41.3061 194.404 41.6555 194.529 41.6555C194.629 41.6555 194.729 40.9567 194.729 40.1082C194.729 38.5857 194.704 38.5608 193.479 37.3628C192.304 36.2148 191.979 35.5908 192.429 35.3163C192.629 35.1915 193.029 35.4411 194.954 36.7139C196.279 37.6124 197.529 37.2879 199.579 35.466C200.104 35.0168 200.879 34.4677 201.304 34.293L202.054 33.9686L201.454 33.6691C201.129 33.4694 200.229 32.7456 199.479 32.0468C197.829 30.4745 196.629 30.0003 195.354 30.4246C194.879 30.5743 194.329 30.8988 194.179 31.1483C193.729 31.7473 193.329 31.947 192.879 31.7723C192.179 31.4978 192.429 30.8988 193.729 29.6509C195.079 28.3531 195.379 27.6543 195.104 26.2816L194.954 25.3582L193.779 26.631C192.479 28.0286 191.679 28.428 190.204 28.428C188.329 28.428 187.254 30.4495 188.504 31.6974C189.104 32.2964 188.929 32.6957 188.279 32.2215C188.054 32.0468 187.454 31.7224 186.979 31.5227C185.979 31.0485 184.604 31.348 183.854 32.1716C183.229 32.8704 182.804 32.7956 181.229 31.7723C179.454 30.6242 178.054 29.2765 177.479 28.1784C176.529 26.3315 173.654 24.1602 171.054 23.3116C170.329 23.087 169.729 22.8624 169.729 22.8125C169.729 22.6378 172.604 22.9622 174.354 23.3366C175.329 23.5362 177.329 24.0853 178.854 24.5595C180.354 25.0337 181.754 25.433 181.979 25.4081C182.554 25.3831 179.179 24.26 175.854 23.3615C173.229 22.6627 172.479 22.5629 169.854 22.5879C168.204 22.6128 166.429 22.7376 165.929 22.8873C164.829 23.1868 164.829 23.1619 165.304 21.0654L165.604 19.8175L167.354 19.3683C168.329 19.1187 170.454 18.7943 172.104 18.6445C178.454 18.0456 187.529 19.9174 193.879 23.1369L195.354 23.8857L194.354 24.285C192.129 25.2334 190.179 25.5329 186.254 25.5329C184.004 25.5578 182.804 25.6327 183.379 25.7325C186.354 26.2566 191.404 25.7325 194.179 24.6094L195.729 23.9855L197.154 24.859C199.504 26.2566 200.629 27.3298 202.079 29.5011C203.554 31.7224 204.579 33.8188 205.454 36.4893C205.779 37.4377 206.079 38.1365 206.154 38.0866C206.329 37.8869 205.029 34.2681 204.129 32.4711C203.654 31.5477 202.879 30.2 202.379 29.4512C201.879 28.7274 201.479 28.1035 201.479 28.0536C201.479 28.0037 202.054 28.2533 202.779 28.6027C205.004 29.6758 209.729 31.1234 212.354 31.5726C216.604 32.2714 221.329 31.7473 224.304 30.2499C224.979 29.9254 225.579 29.6758 225.629 29.7258C225.679 29.7757 226.729 30.7989 227.979 32.0468C230.054 34.0934 230.229 34.318 230.079 35.0417C229.954 35.7156 230.254 36.3645 231.829 39.1598C234.529 43.9017 235.254 45.7985 235.429 48.3442L235.554 50.4157L236.354 49.642C236.804 49.1928 237.254 48.5189 237.329 48.1196C237.504 47.271 237.079 45.0997 236.579 44.0764C235.904 42.8036 236.604 43.4026 237.854 45.1995C239.904 48.1945 240.529 48.7685 242.629 49.5422C243.654 49.9165 244.554 50.1661 244.629 50.0912C244.804 49.8916 243.754 47.1961 243.104 46.1479C242.804 45.6737 241.679 44.5007 240.629 43.5523C239.579 42.6039 238.754 41.8053 238.804 41.7554C238.854 41.7055 239.379 41.8802 239.979 42.1796C242.179 43.2528 244.754 43.0033 245.479 41.6555C245.729 41.2063 245.679 41.1564 244.904 41.1564C244.454 41.1564 243.404 40.9817 242.604 40.782C239.579 39.9834 236.954 38.4859 234.129 35.8903C232.829 34.6923 232.254 34.3429 231.479 34.2431C230.604 34.1183 230.154 33.7689 228.229 31.8222L225.979 29.5511L227.054 28.6276C227.629 28.1285 228.154 27.7042 228.229 27.6792C228.304 27.6792 228.804 27.1052 229.354 26.4313C229.904 25.7325 230.429 25.1835 230.554 25.1835C230.679 25.1835 232.604 25.8573 234.829 26.656C239.729 28.4529 241.979 29.1018 248.954 30.6991C260.254 33.2697 264.279 34.5925 266.929 36.6141C267.654 37.1631 267.729 37.3628 267.729 38.5109C267.729 40.2329 268.379 41.2812 269.729 41.6805C270.829 42.0049 271.054 42.4043 270.154 42.4043C269.404 42.4043 268.504 43.0532 268.229 43.8019C267.954 44.5257 268.254 45.4241 269.104 46.4474C269.654 47.0963 269.729 47.4208 269.729 49.2926C269.729 50.4406 269.829 51.389 269.954 51.389C270.379 51.389 271.729 50.1162 272.129 49.3675C272.379 48.8933 272.479 48.0946 272.429 47.0714C272.354 45.6737 272.404 45.524 272.829 45.524C273.229 45.524 273.379 45.7985 273.604 47.0214C274.104 49.7418 274.704 50.241 277.729 50.4656C278.754 50.5405 279.879 50.6902 280.204 50.7901C280.729 50.9398 280.779 50.9148 280.604 50.4906C280.504 50.241 280.354 49.068 280.304 47.895C280.204 46.2727 280.054 45.5739 279.654 44.9749C279.004 44.0016 278.729 43.8768 277.104 43.6771C275.979 43.5523 275.854 43.4774 275.854 42.9034C275.854 42.3044 275.904 42.2795 277.929 42.1547C279.904 42.0299 280.054 41.98 280.754 41.2063C281.154 40.7571 281.479 40.3078 281.479 40.1581C281.479 40.0333 280.754 40.0083 279.804 40.0832C278.129 40.208 278.079 40.183 276.579 39.1847C275.729 38.6107 274.754 38.1615 274.429 38.1615C273.629 38.1615 272.729 39.1348 272.729 39.9834C272.729 40.4077 272.604 40.6572 272.354 40.6572C272.129 40.6572 271.979 40.4326 271.979 40.0582C271.979 38.4609 270.654 37.1631 269.029 37.1631C268.504 37.1631 267.729 36.8137 266.729 36.1399C264.829 34.8421 262.579 33.8937 258.854 32.8455L255.954 31.9969L259.654 31.8472C265.454 31.5976 269.029 30.4994 271.054 28.3531L271.979 27.3548L274.979 27.6293L277.979 27.9288L279.654 29.1268C280.904 30.0003 281.404 30.5494 281.579 31.1483C281.729 31.6974 282.529 32.5959 284.079 33.9935C288.879 38.3112 290.579 40.3577 291.279 42.579C291.454 43.178 291.679 43.6522 291.779 43.6522C292.079 43.6522 292.729 42.2296 292.729 41.5557C292.729 40.6073 292.304 39.6589 291.154 38.1615C290.154 36.8387 290.154 36.8137 290.854 37.263C291.279 37.5126 292.354 38.2613 293.254 38.9351C294.154 39.584 295.204 40.2579 295.579 40.4077C296.404 40.7071 300.229 40.7571 300.229 40.4326C300.229 40.3328 299.554 39.5092 298.729 38.6107C297.404 37.1631 296.954 36.8637 294.729 35.9153C293.354 35.3412 292.179 34.7922 292.129 34.6923C292.079 34.6175 292.704 34.5925 293.554 34.6175C295.429 34.7423 296.704 34.3679 297.579 33.5193C298.429 32.6708 298.479 31.7972 297.679 32.0219C296.129 32.4711 293.954 32.6708 292.479 32.521C290.529 32.3214 287.129 31.373 285.229 30.5244C284.254 30.0752 283.529 29.9254 282.604 29.9753C281.504 30.0252 281.204 29.9254 280.054 29.0769C279.329 28.5527 278.729 28.0785 278.729 28.0037C278.729 27.9538 279.204 27.9538 279.804 28.0536C281.779 28.3032 291.579 28.9022 299.054 29.2016C304.679 29.4263 306.579 29.4263 306.779 29.2266C307.004 29.002 305.854 28.9271 302.079 28.9271C295.279 28.9022 276.579 27.7791 277.279 27.4296C277.454 27.3298 279.004 27.1551 280.729 27.0802C288.629 26.631 295.629 25.1585 298.379 23.3615C300.779 21.7642 301.454 19.5181 300.004 17.8958C299.379 17.197 299.104 17.0722 298.204 17.0972C297.329 17.1221 297.004 17.2968 296.429 17.9208C295.554 18.8941 295.529 19.7676 296.379 20.5912C296.854 21.0904 297.154 21.1902 297.679 21.0654C299.129 20.716 299.629 19.6428 298.729 18.8192C298.204 18.345 296.979 18.4698 296.979 18.9939C296.979 19.2186 297.054 19.2186 297.279 18.9939C297.729 18.5447 298.429 18.6445 298.729 19.1686C299.079 19.8425 298.804 20.3666 297.929 20.6661C297.279 20.8907 297.104 20.8408 296.554 20.2917C295.404 19.1437 296.404 17.4466 298.254 17.4466C299.829 17.4466 300.729 18.7194 300.379 20.5164C300.204 21.4897 298.804 22.9123 297.304 23.661C293.829 25.3831 286.079 26.631 275.879 27.0802C272.029 27.2549 271.904 27.2549 272.104 26.7807C272.479 25.8573 272.529 23.661 272.204 22.513C271.804 21.0904 270.229 19.3933 268.854 18.944C266.104 18.0456 262.979 19.4432 256.854 24.3598L255.854 25.1585L253.354 24.8091C248.854 24.1602 246.354 23.6361 246.179 23.3615C245.779 22.7376 245.979 20.6412 246.504 19.6928C247.979 17.0972 252.054 17.0472 253.129 19.6179C253.604 20.6911 253.429 21.939 252.729 22.5629C252.479 22.7875 251.754 23.062 251.129 23.112C250.179 23.2368 249.929 23.1619 249.379 22.6128C249.029 22.2634 248.729 21.6894 248.729 21.34C248.729 20.5663 249.879 19.6179 250.654 19.7676C250.979 19.8175 251.229 19.7676 251.229 19.6678C251.229 19.1686 249.679 19.4681 249.104 20.0671C247.754 21.3899 248.729 23.4364 250.754 23.4364C253.904 23.4364 254.779 20.2418 252.229 18.0955C251.154 17.2219 248.954 17.172 247.704 18.0206C246.279 18.969 245.729 20.0422 245.729 21.8391C245.729 23.1868 245.654 23.4364 245.304 23.4364C244.154 23.4115 240.029 22.3133 236.354 21.0405L232.279 19.6428L232.179 17.9956C231.979 14.5764 229.354 10.7829 226.004 9.13565C224.554 8.43684 224.129 8.33701 222.229 8.33701C220.304 8.33701 219.954 8.41188 218.579 9.16061C217.154 9.9343 215.004 11.8061 215.254 12.0557C215.304 12.1056 216.079 11.7063 216.979 11.1822C219.004 9.95926 220.179 9.58489 222.229 9.60985C225.079 9.60985 227.354 11.2571 228.979 14.4516C229.804 16.0489 230.579 18.944 230.204 18.944C230.079 18.944 228.229 18.4449 226.104 17.8209C218.404 15.5997 209.554 13.6031 204.254 12.9043C202.304 12.6547 201.904 12.5299 201.729 12.1056C201.604 11.8061 201.329 11.0574 201.104 10.4085C200.554 8.83616 198.679 6.78963 197.104 6.06586C193.129 4.19403 188.129 6.58997 187.379 10.7329L187.229 11.6314L184.054 11.8061C178.179 12.1056 171.829 13.3785 167.479 15.0756C166.229 15.5747 165.179 15.9491 165.154 15.8992C165.129 15.8742 164.829 15.2752 164.504 14.6263C163.954 13.5282 161.479 10.9576 160.979 10.9576C160.479 10.9576 158.004 13.5282 157.454 14.6263C157.129 15.2752 156.829 15.8742 156.804 15.9241C156.779 15.9741 155.979 15.6995 155.054 15.3252C150.029 13.3285 144.279 12.1306 137.904 11.8061L134.754 11.6314L134.479 10.4335C134.329 9.78455 134.029 9.03582 133.829 8.78624C133.554 8.41188 133.554 8.51171 133.854 9.26044C134.054 9.78455 134.229 10.5083 134.229 10.9076V11.6314L130.179 11.7562C127.929 11.8311 126.079 11.856 126.029 11.8311C125.829 11.6564 126.779 10.1839 127.279 9.9343C128.004 9.53498 129.654 9.80951 130.554 10.4584C130.954 10.7829 131.254 10.8827 131.179 10.708C131.004 10.1839 129.429 9.4601 128.454 9.4601C127.429 9.4601 126.404 10.134 125.854 11.2071C125.479 11.9559 125.154 12.0557 122.179 12.3552L120.529 12.5049L120.754 11.4567C121.129 9.85943 121.854 8.61154 123.079 7.53836C125.729 5.21729 129.804 5.14242 132.479 7.38861C133.304 8.06247 133.429 8.11239 132.979 7.61323C131.754 6.24056 130.329 5.64157 128.129 5.54174C126.379 5.44191 125.929 5.51679 124.854 6.0409ZM196.279 5.96602C198.354 6.54005 200.704 9.23548 201.254 11.6314L201.429 12.5049L199.779 12.3552C196.804 12.0557 196.479 11.9559 196.104 11.2071C195.554 10.134 194.529 9.4601 193.504 9.4601C192.529 9.4601 190.954 10.1839 190.779 10.708C190.704 10.8827 191.004 10.7829 191.404 10.4584C192.304 9.80951 193.954 9.53498 194.679 9.9343C195.179 10.1839 196.129 11.6564 195.929 11.8311C195.879 11.856 194.004 11.8311 191.754 11.7562L187.679 11.6314L187.804 10.5333C188.179 7.21391 192.454 4.9178 196.279 5.96602ZM162.654 12.6547C163.329 13.3285 164.079 14.3269 164.354 14.9258L164.829 15.999L164.279 16.3983C163.979 16.6479 163.104 17.1471 162.354 17.5464L160.979 18.2452L159.604 17.5464C158.854 17.1471 157.979 16.6479 157.679 16.3983L157.129 15.999L157.604 14.9258C158.204 13.653 160.304 11.4567 160.979 11.4567C161.229 11.4567 162.004 12.0058 162.654 12.6547ZM134.179 12.7545C134.104 13.678 134.554 13.5282 129.104 14.3269C126.529 14.7012 126.354 14.7012 126.054 14.3019C125.879 14.0523 125.729 13.5032 125.729 13.054C125.729 12.2304 125.729 12.2304 127.179 12.1306C127.954 12.0807 129.879 12.0307 131.429 12.0058L134.254 11.9559L134.179 12.7545ZM143.229 12.6048C148.004 13.2287 147.779 13.3285 141.529 13.3535C138.279 13.3785 135.354 13.4533 135.054 13.5532C134.579 13.7029 134.479 13.653 134.479 13.2287C134.479 11.9309 134.604 11.881 137.529 12.0557C139.054 12.1306 141.604 12.3802 143.229 12.6048ZM187.329 12.3552C187.404 12.5798 187.479 12.9791 187.479 13.2287C187.479 13.653 187.379 13.7029 186.929 13.5532C186.604 13.4533 183.679 13.3785 180.429 13.3535C174.154 13.3285 173.904 13.2038 178.954 12.5798C185.204 11.8311 187.104 11.7812 187.329 12.3552ZM194.179 12.1306L196.229 12.2803V13.079C196.229 13.5032 196.079 14.0523 195.904 14.3019C195.604 14.7012 195.429 14.7012 192.854 14.3269C187.404 13.5282 187.854 13.678 187.779 12.7545L187.704 11.9559H189.904C191.104 11.9559 193.029 12.0307 194.179 12.1306ZM125.479 13.1788C125.479 13.7279 125.604 14.252 125.729 14.3269C125.879 14.4017 125.979 14.5515 125.979 14.6513C125.979 14.8759 121.004 15.7994 120.829 15.6247C120.754 15.5498 120.629 14.8759 120.554 14.1272L120.404 12.7545L122.754 12.5299C124.054 12.3802 125.179 12.2554 125.304 12.2304C125.404 12.2304 125.479 12.6547 125.479 13.1788ZM199.454 12.5798L201.554 12.7545L201.404 14.1272C201.329 14.8759 201.204 15.5498 201.129 15.6247C200.954 15.7994 195.979 14.8759 195.979 14.6513C195.979 14.5515 196.104 14.4017 196.229 14.3269C196.379 14.252 196.479 13.7279 196.479 13.1788C196.479 12.3302 196.554 12.1805 196.929 12.3053C197.154 12.3552 198.304 12.5049 199.454 12.5798ZM120.304 14.3768C120.379 15.1754 120.429 15.8493 120.379 15.8742C120.354 15.9241 118.929 16.2985 117.204 16.7228C110.879 18.2702 101.679 21.0904 94.8288 23.5612L92.4538 24.4347L92.0788 23.5362C91.8788 23.0371 91.6288 21.939 91.5538 21.0904L91.4038 19.5181L93.0038 18.9939C100.329 16.623 115.654 13.1289 119.379 12.9791C120.154 12.9542 120.154 12.9791 120.304 14.3768ZM206.579 13.5781C213.779 14.8011 222.679 16.9474 228.954 18.9939L230.554 19.5181L230.404 21.0904C230.329 21.939 230.079 23.0371 229.879 23.5362L229.504 24.4347L227.129 23.5612C220.279 21.0904 211.079 18.2702 204.754 16.7228C203.029 16.2985 201.604 15.9241 201.579 15.8742C201.529 15.8493 201.579 15.1754 201.654 14.3768C201.829 12.6796 201.479 12.7296 206.579 13.5781ZM147.479 13.7528C149.654 13.7778 151.204 14.1522 154.404 15.3751L156.729 16.2736L156.579 17.2968C156.479 17.8459 156.379 18.345 156.354 18.395C156.329 18.4199 155.904 18.2951 155.429 18.0955C153.504 17.2719 149.604 16.6978 146.154 16.6978C139.179 16.6978 132.654 18.5197 126.629 22.1386L125.129 23.0371L124.079 21.8391C122.979 20.6412 120.879 16.8476 121.054 16.3484C121.179 15.999 126.204 14.9758 126.404 15.2752C126.704 15.7494 129.154 16.6978 130.104 16.6978C131.529 16.6978 133.054 15.9241 133.704 14.8759C134.204 14.0523 134.354 13.9774 135.804 13.8527C138.629 13.5781 140.329 13.5282 142.979 13.6031C144.429 13.653 146.454 13.7279 147.479 13.7528ZM186.279 13.8527C187.579 13.9774 187.754 14.0773 188.254 14.8759C188.904 15.9241 190.429 16.6978 191.854 16.6978C192.804 16.6978 195.254 15.7494 195.554 15.2752C195.754 14.9758 200.779 15.999 200.904 16.3484C201.079 16.8476 198.979 20.6412 197.879 21.8391L196.829 23.0371L195.329 22.1386C191.554 19.8675 187.829 18.395 183.454 17.3967C181.179 16.8975 180.229 16.8226 175.729 16.8476C171.004 16.8725 170.429 16.9225 168.479 17.4965C167.304 17.8459 166.154 18.1953 165.929 18.3201C165.579 18.4698 165.479 18.37 165.479 17.9208C165.479 17.5963 165.404 17.0972 165.329 16.7977C165.204 16.3484 165.454 16.1737 167.529 15.4C171.054 14.0523 172.404 13.7528 175.629 13.7279C177.254 13.7029 178.654 13.628 178.729 13.5532C178.854 13.4034 183.754 13.6031 186.279 13.8527ZM133.729 14.227C133.729 14.3768 133.354 14.8759 132.904 15.3252C131.879 16.3484 130.579 16.6479 128.979 16.2236C127.829 15.9241 126.604 15.2503 126.804 15.0506C126.904 14.9508 132.504 14.0274 133.429 13.9774C133.579 13.9525 133.729 14.0773 133.729 14.227ZM192.729 14.6014C194.004 14.8011 195.129 15.0007 195.179 15.0756C195.354 15.2503 194.079 15.9241 192.979 16.2236C191.379 16.6479 190.079 16.3484 189.054 15.3252C188.604 14.8759 188.229 14.3768 188.229 14.227C188.229 13.9275 188.379 13.9525 192.729 14.6014ZM121.079 17.4466C121.629 18.944 123.079 21.2651 124.179 22.3632L124.979 23.1619L123.479 24.5845C122.654 25.3582 121.929 26.1818 121.854 26.4313C121.679 26.9555 119.554 28.1285 116.854 29.1767C111.054 31.3979 103.804 31.5976 98.6038 29.6509L97.1538 29.1018L97.7538 28.6276C99.0538 27.6044 105.504 23.4115 107.854 22.0637C112.454 19.4182 119.079 16.3484 120.504 16.2236C120.579 16.1987 120.829 16.7727 121.079 17.4466ZM204.229 17.1471C206.304 17.9457 210.954 20.2668 214.129 22.0637C216.454 23.4115 222.879 27.5794 224.204 28.6276L224.804 29.1018L223.354 29.6509C218.179 31.5976 210.879 31.3979 205.104 29.1767C202.404 28.1285 200.279 26.9555 200.104 26.4313C200.029 26.1818 199.304 25.3582 198.479 24.5845L196.979 23.1619L197.779 22.3632C198.879 21.2651 200.329 18.944 200.879 17.4466C201.379 16.024 201.379 16.024 204.229 17.1471ZM160.029 18.0955L160.929 18.6695L162.879 17.5714C164.979 16.3734 165.229 16.3983 165.229 17.8459C165.229 18.4948 165.079 18.6945 164.479 18.944C164.054 19.1187 163.104 19.6428 162.354 20.0921L160.979 20.9157L159.604 20.0921C158.854 19.6428 157.904 19.1187 157.479 18.944C156.904 18.6945 156.729 18.4698 156.729 17.9457C156.729 16.5231 156.904 16.3983 158.054 16.9973C158.629 17.2719 159.504 17.771 160.029 18.0955ZM116.229 17.3467C116.229 17.4216 115.829 17.6462 115.329 17.8459C112.079 19.2186 103.204 24.3598 99.4288 27.0802L96.9038 28.9022L95.8288 28.1784C94.6538 27.3548 92.7288 25.2833 92.7288 24.8091C92.7288 24.3598 109.604 18.8692 115.604 17.3717C115.879 17.3218 116.129 17.2469 116.179 17.2219C116.204 17.2219 116.229 17.2469 116.229 17.3467ZM212.104 18.969C216.779 20.2917 229.229 24.5346 229.229 24.8091C229.229 25.2833 227.304 27.3548 226.129 28.1784L225.054 28.9022L222.529 27.0802C218.754 24.3598 209.879 19.2186 206.629 17.8459C204.479 16.9474 206.404 17.3467 212.104 18.969ZM150.804 18.7194C152.029 18.8692 153.779 19.1686 154.679 19.3933L156.354 19.8175L156.654 21.0654C157.129 23.1619 157.129 23.1868 156.054 22.8624C154.579 22.4381 149.879 22.5379 147.479 23.0371C146.329 23.2867 143.954 23.9605 142.229 24.5096C139.154 25.5079 139.054 25.5329 135.479 25.5329C131.804 25.5329 129.704 25.2084 127.554 24.285L126.604 23.8857L128.104 23.1369C131.879 21.2152 137.804 19.4432 142.529 18.8192C145.829 18.4199 148.054 18.37 150.804 18.7194ZM57.2288 19.5929C58.8038 20.0921 60.3288 21.0155 63.0788 23.1868C64.5288 24.3099 65.3288 25.1086 65.1538 25.2084C64.9788 25.2833 64.1788 25.433 63.3538 25.5329C62.5288 25.6327 59.5538 25.9821 56.7288 26.3315C50.1038 27.1052 50.3288 27.1052 50.0038 26.1568C49.2288 23.8857 50.1288 21.0654 52.0538 19.8175C53.4038 18.944 54.9538 18.8941 57.2288 19.5929ZM268.929 19.3434C271.529 20.4165 272.879 23.4863 271.954 26.1568C271.629 27.1052 271.854 27.1052 265.229 26.3315C262.404 25.9821 259.429 25.6327 258.604 25.5329C257.779 25.433 256.954 25.2833 256.779 25.2084C256.579 25.0836 257.179 24.4597 258.554 23.3865C261.104 21.34 262.704 20.3666 264.629 19.568C266.354 18.8692 267.629 18.7943 268.929 19.3434ZM91.1288 24.4597C91.2288 24.7592 90.4038 25.1585 87.0538 26.3814C82.0038 28.2033 80.9038 28.5278 73.9788 30.2L68.6038 31.4728L63.8538 31.4978C57.4788 31.4978 54.0538 30.7241 51.7788 28.7774C50.2788 27.5045 50.3788 27.2799 52.6788 27.0553C53.7288 26.9555 57.1788 26.5811 60.3038 26.1818L66.0288 25.4829L67.2288 26.1818C68.6788 27.0303 70.4788 27.6792 71.4038 27.6792C72.9538 27.6792 74.5788 26.4563 75.8538 24.3349C76.0288 24.0354 77.0288 23.7109 78.8538 23.3116C80.3788 22.9872 83.4038 22.1137 85.6038 21.3649L89.6038 20.0172L90.3038 22.0388C90.6788 23.1619 91.0538 24.2351 91.1288 24.4597ZM243.054 23.3116C245.954 23.8857 245.929 23.8857 246.454 24.884C247.279 26.4813 249.054 27.6792 250.579 27.6792C251.504 27.6792 253.429 26.9804 254.754 26.1818L255.929 25.4829L261.629 26.1818C264.779 26.5811 268.229 26.9555 269.304 27.0553C271.579 27.2799 271.679 27.5045 270.179 28.7774C267.904 30.749 264.479 31.4978 258.104 31.4978C253.504 31.4728 253.229 31.4478 249.604 30.5743C247.554 30.0752 245.129 29.4762 244.229 29.2765C241.254 28.5527 239.154 27.9038 234.904 26.3814C231.529 25.1585 230.729 24.7841 230.829 24.4597C230.904 24.2351 231.279 23.1619 231.654 22.0388L232.329 20.0172L236.679 21.4648C239.054 22.2634 241.929 23.087 243.054 23.3116ZM159.204 21.0904L160.979 21.9639L162.754 21.0904C164.504 20.2169 165.229 19.9923 165.229 20.3666C165.229 20.4914 165.079 21.1153 164.904 21.7892C164.554 23.112 164.579 23.087 162.429 24.0354L160.979 24.6593L159.554 24.0354C157.379 23.087 157.404 23.112 157.054 21.7892C156.879 21.1153 156.729 20.4914 156.729 20.3666C156.729 19.9923 157.454 20.2169 159.204 21.0904ZM159.904 24.4347C160.929 24.884 160.954 24.884 162.479 24.26C163.329 23.9356 164.079 23.7109 164.154 23.7609C164.429 24.0604 161.454 28.6775 160.979 28.6775C160.604 28.6775 157.729 24.4347 157.729 23.8607C157.729 23.6111 158.429 23.8108 159.904 24.4347ZM75.4788 24.26C75.4788 24.9339 73.7288 26.656 72.6038 27.0553C71.6538 27.4296 71.3038 27.4546 70.3038 27.1801C69.0288 26.8806 66.6538 25.6826 66.8538 25.4829C66.9538 25.3831 70.8038 24.6843 75.3038 23.9605C75.4038 23.9605 75.4788 24.0853 75.4788 24.26ZM250.729 24.6843C255.779 25.458 255.554 25.3582 254.354 26.0819C251.529 27.804 249.404 27.7042 247.554 25.7824C246.429 24.6344 246.129 23.8108 246.929 24.0354C247.154 24.0853 248.879 24.3848 250.729 24.6843Z" fill="#03AFBD"/>
<path d="M22.5788 17.3467C20.4288 18.395 20.8538 21.5646 23.3538 23.2118C25.6038 24.7093 31.2288 26.2067 35.7288 26.5312C37.2288 26.656 36.9788 26.5811 34.4788 26.1818C28.0788 25.1835 24.2038 23.8607 22.4788 22.0638C21.7038 21.2651 21.6038 21.0155 21.6038 19.7926C21.6038 18.6196 21.7038 18.3201 22.2038 17.9208C22.8538 17.3967 24.2288 17.2968 25.0038 17.7211C25.7538 18.0955 26.0538 19.1437 25.7038 19.9923C25.4788 20.5663 25.2538 20.6911 24.6038 20.6911C24.1288 20.6911 23.5788 20.5164 23.3788 20.2918C22.9038 19.8425 22.9038 19.7926 23.2288 19.1687C23.5288 18.6445 24.2288 18.5447 24.6788 18.994C24.9038 19.2186 24.9788 19.2186 24.9788 18.994C24.9788 18.4698 23.7538 18.3451 23.2288 18.8193C22.3288 19.6429 22.8288 20.716 24.2788 21.0654C24.8038 21.1902 25.1038 21.0904 25.5788 20.5912C26.4288 19.7676 26.4038 18.8941 25.5538 17.9707C24.6788 17.0473 23.6038 16.8226 22.5788 17.3467Z" fill="#03AFBD"/>
<path d="M8.80376 23.3615C8.62876 23.4364 8.47876 23.8108 8.47876 24.2101C8.47876 26.1069 10.5788 28.1035 13.0538 28.5527C13.8288 28.7025 13.9788 28.6526 13.9788 28.3281C13.9788 27.829 13.1288 26.1069 12.3788 25.1086C11.5288 23.9605 9.62876 23.0371 8.80376 23.3615Z" fill="#03AFBD"/>
<path d="M310.854 23.9356C310.454 24.1852 309.904 24.6843 309.654 24.9838C308.929 25.8823 307.704 28.5528 307.979 28.6276C308.104 28.6775 308.829 28.5278 309.604 28.3281C311.804 27.6792 313.479 25.9072 313.479 24.1852C313.479 23.4863 313.429 23.4364 312.554 23.4364C312.029 23.4364 311.279 23.661 310.854 23.9356Z" fill="#03AFBD"/>
<path d="M2.80373 27.9538C1.42873 28.3531 0.653726 29.8006 1.12873 31.0485C1.35373 31.6475 2.57873 32.1716 3.67873 32.1716C5.52873 32.1716 10.4037 30.2249 10.3037 29.5511C10.2537 29.1767 6.55373 27.9787 4.97873 27.829C4.22873 27.7541 3.25373 27.804 2.80373 27.9538Z" fill="#03AFBD"/>
<path d="M316.054 27.9538C314.504 28.2033 311.704 29.2266 311.654 29.5511C311.529 30.2249 316.454 32.1716 318.279 32.1716C319.379 32.1716 320.604 31.6475 320.829 31.0485C321.379 29.601 320.654 28.2782 319.104 27.9288C317.954 27.6543 317.829 27.6543 316.054 27.9538Z" fill="#03AFBD"/>
<path d="M12.2787 30.5743C10.8037 31.2981 9.90369 32.3463 9.52869 33.7439C9.25369 34.7672 9.50369 35.9153 9.97869 35.9153C10.6787 35.9153 11.9787 35.1166 12.5787 34.3429C13.3287 33.3696 14.2287 31.2232 14.2287 30.4246C14.2287 29.7757 13.8287 29.8006 12.2787 30.5743Z" fill="#03AFBD"/>
<path d="M307.729 30.4246C307.729 31.2731 308.704 33.5193 309.479 34.4677C310.304 35.4411 311.854 36.1399 312.279 35.7156C313.054 34.9419 312.229 32.3463 310.904 31.348C309.079 29.9753 307.729 29.576 307.729 30.4246Z" fill="#03AFBD"/>
<path d="M204.704 39.2846C202.004 40.2329 200.229 41.8302 200.229 43.3277C200.229 44.351 200.904 44.6005 202.379 44.0265C203.679 43.5274 204.754 42.3543 205.354 40.8319C205.954 39.2346 205.829 38.9102 204.704 39.2846Z" fill="#03AFBD"/>
<path d="M113.104 39.609C111.304 40.3577 110.229 41.1813 109.704 42.2046C108.979 43.6272 109.129 44.2511 110.229 44.351C111.654 44.4758 113.254 43.2778 114.204 41.381C114.629 40.5324 114.979 39.6839 114.979 39.4842C114.979 39.0599 114.329 39.0849 113.104 39.609Z" fill="#03AFBD"/>
<path d="M116.229 39.584C116.229 40.2829 117.354 42.4791 118.004 43.0781C118.854 43.8518 120.429 44.4758 121.129 44.3011C121.879 44.1014 121.929 43.1031 121.254 42.0049C120.104 40.1331 116.229 38.2862 116.229 39.584Z" fill="#03AFBD"/>
<path d="M207.129 39.8336C207.479 41.3061 208.504 42.9034 209.454 43.5523C210.704 44.3759 212.404 44.6505 212.629 44.0515C213.104 42.8036 211.004 40.3078 208.854 39.5591C207.154 38.9851 206.929 39.035 207.129 39.8336Z" fill="#03AFBD"/>
<path d="M114.754 44.1513C113.929 45.8983 113.229 48.3442 113.229 49.4174C113.229 51.988 115.854 53.3607 117.154 51.439C118.054 50.0912 117.504 46.2228 115.979 43.4026L115.529 42.5291L114.754 44.1513Z" fill="#03AFBD"/>
<path d="M205.554 44.3011C203.329 49.2926 204.254 53.3357 207.329 52.0379C208.979 51.3391 209.104 49.0181 207.704 45.3992C206.529 42.3294 206.454 42.3044 205.554 44.3011Z" fill="#03AFBD"/>
</svg>
