<svg width="24" height="25" viewBox="0 0 24 25" fill="none" xmlns="http://www.w3.org/2000/svg">
<path d="M12 2.75C8.27344 2.75 5.25 5.62766 5.25 9.17188C5.25 13.25 9.75 19.7127 11.4023 21.9448C11.4709 22.0391 11.5608 22.1157 11.6647 22.1686C11.7686 22.2215 11.8835 22.249 12 22.249C12.1165 22.249 12.2314 22.2215 12.3353 22.1686C12.4392 22.1157 12.5291 22.0391 12.5977 21.9448C14.25 19.7136 18.75 13.2533 18.75 9.17188C18.75 5.62766 15.7266 2.75 12 2.75Z" stroke="white" stroke-width="1.5" stroke-linecap="round" stroke-linejoin="round"/>
<path d="M12 11.75C13.2426 11.75 14.25 10.7426 14.25 9.5C14.25 8.25736 13.2426 7.25 12 7.25C10.7574 7.25 9.75 8.25736 9.75 9.5C9.75 10.7426 10.7574 11.75 12 11.75Z" stroke="white" stroke-width="1.5" stroke-linecap="round" stroke-linejoin="round"/>
</svg>
